<svg xmlns="http://www.w3.org/2000/svg" xmlns:xlink="http://www.w3.org/1999/xlink" version="1.1" x="0px" y="0px" viewBox="0 0 300 300" style="enable-background:new 0 0 500 500;" xml:space="preserve">
<g id="OBJECTS">
	<g>
		<defs>
			<circle id="SVGID_00000088832697433603741650000013676938491014534028_" cx="145.581" cy="145.581" r="102.044"/>
		</defs>
		<use xlink:href="#SVGID_00000088832697433603741650000013676938491014534028_" style="overflow:visible;fill:#6A0D91;"/>
		<clipPath id="SVGID_00000150796069283180172560000009534912603006885014_">
			<use xlink:href="#SVGID_00000088832697433603741650000013676938491014534028_" style="overflow:visible;"/>
		</clipPath>
		<g style="clip-path:url(#SVGID_00000150796069283180172560000009534912603006885014_);">
			<g>
				<g>
					<g>
						<path style="fill:#FE8783;" d="M240.784,248.563l-7.483-15.11c0,0-4.88-7.695-15.202-11.261c0,0-23.085-6.944-26.463-8.07        l-9.947-5.443c-0.478,0.467-0.984,0.907-1.491,1.341c-1.74,1.492-3.573,2.878-5.469,4.166        c-2.743,1.863-5.631,3.521-8.649,4.898c-3.487,1.591-7.159,2.808-10.943,3.449c-1.999,0.339-4.027,0.515-6.055,0.5        c-1.032-0.007-2.066-0.137-3.093-0.119c-1.304,0.022-2.606,0.11-3.91,0.119c-1.323,0.009-2.646-0.062-3.961-0.207        c-3.863-0.426-7.64-1.486-11.23-2.96c-3.176-1.304-6.216-2.932-9.104-4.788c-2.117-1.361-4.158-2.845-6.097-4.451        c-0.144-0.119-2.114-2.003-2.212-1.949c-0.001,0-9.947,5.443-9.947,5.443c-3.378,1.126-26.463,8.07-26.463,8.07        c-10.323,3.566-15.202,11.261-15.202,11.261l-7.483,15.11H240.784z"/>
					</g>
					<g>
						<path style="fill:#CE4E4D;" d="M165.433,248.563c14.347-12.109,20.869-29.578,20.869-29.578        c-47.198,32.108-86.641-4.604-86.641-4.604c-3.316,3.415-7.044,4.322-10.333,7.763c-1.144,1.197-2.242,2.574-3.27,4.021        c-1.347,1.895-2.576,3.911-3.639,5.803c-2.015,3.586-3.387,7.575-3.602,11.703c-0.085,1.628,0.035,3.28,0.348,4.892H165.433z"/>
					</g>
					<g>
						<path style="fill:#CE4E4D;" d="M54.427,239.387c3.342-1.543,6.794-3.168,9.184-5.968c1.098-1.287,1.931-2.778,2.975-4.109        c3.589-4.572,9.293-6.842,14.724-8.916c-5.982,1.602-11.496,2.973-16.936,5.934c-0.617,0.336-1.23,0.692-1.754,1.159        c-0.762,0.68-1.305,1.565-1.836,2.437C58.852,233.095,56.359,236.217,54.427,239.387z"/>
					</g>
					<g>
						<path style="fill:#CE4E4D;" d="M236.727,239.387c-3.342-1.543-6.794-3.168-9.184-5.968c-1.098-1.287-1.93-2.778-2.975-4.109        c-3.589-4.572-9.293-6.842-14.723-8.916c5.982,1.602,11.496,2.973,16.935,5.934c0.617,0.336,1.23,0.692,1.754,1.159        c0.762,0.68,1.305,1.565,1.836,2.437C232.302,233.095,234.795,236.217,236.727,239.387z"/>
					</g>
				</g>
				<g>
					<g>
						<g>
							<g>
								<path style="fill:#F9BF9A;" d="M195.124,121.951c-0.43-0.14-0.874-0.211-1.321-0.211c-0.274,0-0.544,0.027-0.804,0.081          l-0.574,0.119l0.062-0.583c0.529-4.946,0.752-9.066,0.703-12.967c-0.05-2.978-0.254-5.386-0.641-7.575          c-0.444-2.405-1.082-4.939-2.727-7.164c-0.366-0.434-0.692-0.8-1.055-1.187c-0.327-0.359-0.682-0.731-1.088-1.139          c-0.554-0.578-1.139-1.135-1.706-1.673c-0.186-0.176-0.371-0.353-0.556-0.53c-1.778-1.621-3.299-2.916-4.778-4.07          c-1.432-1.143-2.995-2.288-5.074-3.718l-2.633-1.727L170.234,78c-4.192-2.382-7.782-4.128-11.29-5.489          c-1.543-0.668-3.154-1.213-4.712-1.74c-0.404-0.137-0.809-0.273-1.212-0.412c-0.707-0.262-1.446-0.463-2.16-0.658          c-0.283-0.077-0.566-0.154-0.848-0.235l-3.043-0.842c-0.023-0.006-0.052-0.01-0.076-0.01l-0.028,0l-0.783-0.002l-0.024,0          c-0.027,0-0.054,0.004-0.081,0.011l-3.368,0.915l-1.673,0.455l-1.645,0.547l-3.295,1.111l-3.231,1.291          c-4.638,1.961-8.681,4.027-12.353,6.313c-4.003,2.477-7.774,5.235-11.211,8.195c-2.094,1.85-3.645,3.335-5.025,4.813          c-0.069,0.075-0.141,0.153-0.214,0.23c-0.126,0.134-0.251,0.267-0.373,0.408c-0.059,0.067-0.115,0.131-0.172,0.195          c-0.141,0.159-0.274,0.309-0.42,0.489c-0.403,0.546-0.722,1.051-0.964,1.531c-0.506,0.969-0.921,2.057-1.271,3.329          c-0.55,2.04-0.889,4.238-1.067,6.916c-0.142,2.117-0.173,4.392-0.097,6.953c0.089,2.848,0.294,5.783,0.625,8.971          l0.053,0.507l-0.508-0.036c-0.1-0.007-0.201-0.011-0.301-0.011c-0.442,0-0.872,0.067-1.278,0.2          c-0.867,0.273-1.664,0.778-2.309,1.462c-1.116,1.198-1.704,2.881-1.746,5.001c-0.03,1.917,0.34,3.73,0.707,5.251          c0.402,1.62,0.918,3.185,1.57,5.035c0.275,0.766,0.548,1.537,0.821,2.308c0.884,2.497,1.798,5.08,2.834,7.575          c0.363,0.872,0.709,1.661,1.059,2.41l0.123,0.26c0.327,0.689,0.665,1.402,1.103,2.058c0.561,0.837,1.199,1.405,1.895,1.69          c0.397,0.163,0.797,0.246,1.193,0.246l0.051-0.001c0.247-0.005,0.499-0.055,0.749-0.147l0.386-0.143l0.157,0.38          c1.428,3.451,3.365,6.948,5.758,10.394c1.568,2.176,2.943,3.927,4.323,5.505c1.582,1.811,3.212,3.512,4.843,5.056          c1.031,0.975,1.839,1.691,2.618,2.324l0.426,0.347l0.224,0.182l-0.085,0.276c-0.02,0.064-0.029,0.116-0.028,0.165          l0.321,21.446l0.003,0.198l-0.149,0.13c-0.985,0.86-2.075,1.727-3.536,2.81c-1.247,0.921-2.603,1.878-4.147,2.925          c-1.741,1.175-3.495,2.316-5.22,3.396l0.001,0.001l-0.047,0.029c0.074,0.063,0.148,0.126,0.222,0.189l0.22,0.188l0.02,0.017          l0.017,0.019c8.775,9.501,27.83,12.276,28.049,12.299c1.059,0.07,4.903-0.26,5.975-0.26          c14.487,0,25.271-6.495,30.409-10.366l0.114-0.086l0.142,0l0.298-0.001c0.087-0.128,0.178-0.238,0.278-0.336          c0.622-0.607,1.34-1.203,2.262-1.875c0.057-0.042,0.117-0.08,0.179-0.116c-1.536-1.022-3.134-2.139-4.863-3.399          c-1.383-1.015-2.626-1.963-3.799-2.899c-1.345-1.075-2.419-1.989-3.38-2.876l-0.14-0.13l0.003-0.191l0.316-21.113          c-0.002-0.165-0.067-0.302-0.183-0.404l-0.385-0.336l0.399-0.319c0.989-0.792,1.929-1.65,2.636-2.31          c1.643-1.543,3.286-3.243,4.881-5.052c1.466-1.679,2.932-3.535,4.357-5.516c2.432-3.469,4.401-7.012,5.851-10.528          l0.174-0.421l0.409,0.2c0.286,0.14,0.607,0.226,0.953,0.257c0.11,0.011,0.218,0.016,0.326,0.016          c0.304,0,0.626-0.042,0.958-0.125c0.443-0.12,0.834-0.316,1.125-0.566c0.317-0.26,0.614-0.581,0.889-0.961          c0.507-0.703,0.879-1.487,1.239-2.245l0.031-0.066c0.362-0.768,0.714-1.561,1.076-2.422c1.067-2.549,2.002-5.19,2.907-7.745          c0.26-0.736,0.521-1.471,0.784-2.205c0.658-1.863,1.18-3.439,1.592-5.068c0.227-0.897,0.406-1.776,0.531-2.611          c0.15-0.98,0.216-1.853,0.203-2.669c-0.03-2.136-0.61-3.835-1.723-5.052C196.786,122.737,195.985,122.225,195.124,121.951z"/>
							</g>
						</g>
					</g>
					<g>
						<path style="fill:#BF7D5D;" d="M167.522,178.647c0,0-4.872,29.757-27.952,24.458c0,0-10.841-3.027-14.338-14.1        c-0.171-2.176-0.095-4.76-0.267-6.937c-0.045-0.567,0.559-2.136,1.013-2.523c0.521-0.445,1.716,1.267,2.06,1.59        c0.793,0.743,1.649,1.419,2.556,2.018c0.943,0.622,1.942,1.161,2.981,1.605c1.64,0.701,3.372,1.168,5.021,1.849        c2.561,1.059,5.423,3.102,8.331,2.253c1.072-0.313,2.144-0.628,3.21-0.96c2.131-0.661,4.247-1.38,6.308-2.239        C160.566,183.944,164.177,181.564,167.522,178.647z"/>
					</g>
					<g>
						<polygon style="fill:#BF7D5D;" points="114.907,117.673 121.205,120.092 139.316,122.25 140.912,128.725 140.568,150.872         142.257,141.926 142.413,128.256 140.411,119.663 135.302,118.924 119.891,116.808       "/>
					</g>
					<g>
						<polygon style="fill:#BF7D5D;" points="151.177,119.878 153.195,121.661 169.246,120.63 176.655,117.814 171.728,117.204         153.245,118.824       "/>
					</g>
					<g>
						<path style="fill:#BF7D5D;" d="M196.404,128.763c-0.783-0.65-1.939-0.961-2.835-0.479c-0.482,0.259-0.831,0.708-1.116,1.175        c-0.422,0.689-0.736,1.445-0.927,2.23c-0.475,1.945-0.19,3.983-0.251,5.984c-0.154,5.052-2.499,9.749-4.89,14.202        c2.136-7.706,3.551-15.611,4.218-23.58c0.16-1.908,0.29-3.872,1.111-5.601c0.091-0.192,0.197-0.388,0.373-0.509        c0.195-0.133,0.443-0.153,0.679-0.168c0.54-0.034,1.084-0.068,1.619,0.016c1.817,0.286,3.186,1.92,3.718,3.681        c0.532,1.761,0.389,3.645,0.242,5.48c-0.008,0.104-0.036,0.186-0.109,0.259C197.611,130.779,197.285,129.494,196.404,128.763z        "/>
					</g>
					<g>
						<path style="fill:#BF7D5D;" d="M96.174,128.763c0.783-0.65,1.939-0.961,2.835-0.479c0.482,0.259,0.831,0.708,1.116,1.175        c0.422,0.689,0.736,1.445,0.927,2.23c0.475,1.945,0.19,3.983,0.251,5.984c0.154,5.052,2.499,9.749,4.89,14.202        c-2.136-7.706-3.551-15.611-4.218-23.58c-0.16-1.908-0.29-3.872-1.111-5.601c-0.091-0.192-0.197-0.388-0.373-0.509        c-0.195-0.133-0.443-0.153-0.679-0.168c-0.54-0.034-1.085-0.068-1.619,0.016c-1.817,0.286-3.186,1.92-3.718,3.681        c-0.532,1.761-0.389,3.645-0.242,5.48c0.008,0.104,0.036,0.186,0.11,0.259C94.967,130.779,95.294,129.494,96.174,128.763z"/>
					</g>
					<g>
						<polygon style="fill:#BF7D5D;" points="143.522,174.857 147.566,173.484 147.789,174.857 145.377,175.377       "/>
					</g>
					<g>
						<path style="fill:#BF7D5D;" d="M152.684,158.841c0,0-6.434,7.535-12.516,0l2.401,0.586l2.828,0.373l2.997-0.107l1.268-0.373        l1.908-0.133L152.684,158.841z"/>
					</g>
				</g>
			</g>
			<g>
				<g>
					<g>
						<path style="fill:#02020C;" d="M188.708,94.134c-2.656-3.03-5.794-5.829-9.031-8.361c-3.262-2.529-6.678-4.875-10.282-6.895        c-3.599-2.021-7.299-3.882-11.157-5.357c-1.9-0.813-3.874-1.423-5.829-2.086c-0.97-0.355-1.978-0.587-2.971-0.866        l-2.987-0.811l0.217,0.026l-0.783,0.002l0.217-0.026c-8.834,2.229-17.347,5.736-25.115,10.503        c-3.874,2.394-7.572,5.076-11.022,8.043c-1.704,1.503-3.375,3.052-4.918,4.701c-0.38,0.402-0.782,0.846-1.102,1.23        c-0.264,0.446-0.592,0.831-0.816,1.318c-0.485,0.943-0.869,1.966-1.154,3.031c-1.147,4.28-1.227,8.901-1.129,13.437        c0.138,4.558,0.582,9.12,1.163,13.665c1.184,9.085,2.924,18.133,5.052,27.042l-0.022-0.075        c1.522,4.288,3.729,8.33,6.324,12.101c2.637,3.745,5.645,7.245,8.963,10.412c0.831,0.792,1.67,1.562,2.555,2.287l1.32,1.093        l1.364,1.024c1.851,1.327,3.816,2.508,5.845,3.575c2.026,1.073,4.108,2.056,6.239,2.928c2.128,0.878,4.287,1.705,6.488,2.385        l0.003,0.001h-0.213c4.478-1.258,8.858-2.907,13.015-4.977c2.075-1.041,4.091-2.197,5.995-3.511l1.397-1.025        c0.461-0.348,0.897-0.731,1.347-1.095c0.903-0.733,1.753-1.51,2.599-2.308c3.366-3.201,6.414-6.74,9.083-10.534        c2.635-3.813,4.866-7.915,6.406-12.267l-0.015,0.051c1.173-4.876,2.195-9.809,3.096-14.751        c0.899-4.944,1.668-9.913,2.234-14.899c0.558-4.984,0.928-9.995,0.835-14.982c-0.064-2.489-0.24-4.976-0.683-7.393        C190.791,98.378,190.062,95.971,188.708,94.134z M189.961,93.136c1.636,2.258,2.332,4.83,2.801,7.358        c0.447,2.543,0.608,5.098,0.656,7.643c0.061,5.092-0.351,10.149-0.947,15.171c-0.605,5.022-1.412,10.012-2.349,14.973        c-0.94,4.963-1.996,9.894-3.213,14.806l-0.015,0.052c-1.616,4.467-3.926,8.64-6.634,12.502        c-2.743,3.842-5.855,7.406-9.294,10.632c-0.861,0.802-1.745,1.598-2.664,2.334c-0.462,0.368-0.909,0.755-1.384,1.108        l-1.44,1.041c-1.958,1.332-4.019,2.494-6.133,3.536c-4.235,2.073-8.665,3.705-13.204,4.947        c-0.069,0.019-0.138,0.019-0.202,0.003l-0.011-0.003l-0.003-0.001c-4.544-1.119-8.959-2.728-13.175-4.807        c-2.098-1.057-4.142-2.238-6.088-3.583l-1.438-1.042l-1.371-1.117c-0.914-0.742-1.79-1.54-2.642-2.345        c-3.412-3.231-6.498-6.791-9.223-10.627c-2.681-3.862-4.982-8.025-6.586-12.489l-0.023-0.075        c-2.187-8.994-3.967-18.052-5.202-27.227c-0.612-4.585-1.054-9.202-1.202-13.85c-0.097-4.64-0.047-9.349,1.186-13.995        c0.31-1.157,0.733-2.304,1.301-3.408c0.26-0.559,0.67-1.076,1.005-1.61c0.416-0.501,0.791-0.908,1.199-1.345        c1.603-1.715,3.312-3.301,5.059-4.844c3.531-3.042,7.307-5.785,11.264-8.234c3.953-2.461,8.136-4.535,12.42-6.347l3.242-1.295        l3.308-1.115l1.656-0.551l1.684-0.458l3.368-0.915c0.064-0.018,0.129-0.026,0.193-0.026l0.025,0l0.783,0.002l0.028,0        c0.064,0,0.13,0.01,0.189,0.026l3.047,0.843c1.013,0.29,2.04,0.533,3.029,0.899c1.992,0.686,4.004,1.32,5.939,2.158        c3.93,1.525,7.696,3.441,11.355,5.52c3.664,2.079,7.135,4.486,10.45,7.082C184.016,87.092,187.132,89.875,189.961,93.136z"/>
					</g>
				</g>
				<g>
					<g>
						<path style="fill:#02020C;" d="M100.358,122.677c-1.283-0.572-2.983-0.016-4.043,1.094c-1.075,1.093-1.545,2.767-1.6,4.415        c-0.077,3.371,0.956,6.773,2.043,10.076c1.123,3.327,2.178,6.679,3.455,9.929c0.656,1.604,1.298,3.279,2.166,4.717        c0.452,0.702,1.025,1.321,1.759,1.637c0.724,0.323,1.598,0.363,2.236-0.053l0.329,0.498c-0.854,0.574-1.951,0.518-2.819,0.151        c-0.902-0.369-1.583-1.094-2.089-1.848c-0.512-0.766-0.879-1.579-1.259-2.374c-0.373-0.802-0.727-1.612-1.066-2.427        c-1.356-3.265-2.475-6.599-3.663-9.905c-1.154-3.318-2.305-6.742-2.301-10.437c0.036-1.824,0.482-3.803,1.862-5.286        c0.676-0.717,1.524-1.271,2.487-1.575c0.954-0.312,2.064-0.315,3.053,0.087L100.358,122.677z"/>
					</g>
					<g>
						<path style="fill:#02020C;" d="M96.845,129.404c-0.682-1.373-0.393-3.159,0.725-4.286c0.535-0.542,1.366-1.007,2.264-0.775        c0.857,0.231,1.486,0.95,1.69,1.802c0.052,0.218-0.082,0.438-0.3,0.49c-0.218,0.052-0.438-0.082-0.49-0.3        c-0.002-0.01-0.005-0.022-0.006-0.031c-0.091-0.566-0.525-1.13-1.079-1.305c-0.543-0.194-1.21,0.075-1.701,0.52        c-1.002,0.883-1.393,2.479-0.843,3.766c0.032,0.072-0.001,0.156-0.073,0.188C96.961,129.501,96.879,129.47,96.845,129.404z"/>
					</g>
					<g>
						<path style="fill:#02020C;" d="M102.545,135.926c-1.067,0.512-1.64,1.712-1.684,2.849c-0.036,1.163,0.416,2.288,1.011,3.294        c0.6,1.014,1.361,1.942,2.027,2.972c0.696,1.021,1.077,2.255,1.925,2.829c0.186,0.126,0.234,0.378,0.109,0.564        c-0.126,0.186-0.378,0.235-0.564,0.109c-0.006-0.004-0.015-0.011-0.021-0.015c-0.564-0.429-0.912-1.013-1.19-1.56        c-0.278-0.558-0.511-1.08-0.815-1.586c-0.594-1.017-1.321-1.989-1.9-3.073c-0.573-1.074-1.008-2.295-0.913-3.555        c0.103-1.23,0.777-2.485,1.945-2.985c0.043-0.018,0.093,0.002,0.112,0.045C102.605,135.857,102.586,135.906,102.545,135.926z"/>
					</g>
				</g>
				<g>
					<g>
						<path style="fill:#02020C;" d="M191.984,121.378c0.996-0.406,2.113-0.397,3.073-0.082c0.967,0.311,1.819,0.871,2.495,1.599        c1.381,1.502,1.809,3.497,1.836,5.333c-0.015,3.717-1.188,7.16-2.351,10.499c-1.195,3.328-2.325,6.687-3.699,9.971        c-0.344,0.82-0.704,1.634-1.084,2.439c-0.38,0.8-0.765,1.622-1.31,2.378c-0.272,0.376-0.588,0.732-0.956,1.035        c-0.374,0.321-0.841,0.532-1.3,0.656c-0.921,0.225-1.945,0.212-2.815-0.338l0.329-0.498c0.646,0.404,1.546,0.426,2.316,0.214        c0.788-0.198,1.373-0.778,1.861-1.472c0.479-0.69,0.837-1.485,1.199-2.288c0.359-0.801,0.699-1.612,1.024-2.429        c1.296-3.27,2.358-6.643,3.489-9.994c1.098-3.327,2.152-6.747,2.092-10.145c-0.047-1.662-0.503-3.353-1.581-4.462        c-1.06-1.125-2.772-1.694-4.065-1.118L191.984,121.378z"/>
					</g>
					<g>
						<path style="fill:#02020C;" d="M195.79,129.283c0.55-1.286,0.159-2.883-0.843-3.766c-0.491-0.445-1.158-0.713-1.701-0.52        c-0.554,0.176-0.989,0.739-1.079,1.305c-0.035,0.222-0.243,0.373-0.465,0.338c-0.222-0.035-0.373-0.243-0.338-0.465        c0.002-0.01,0.004-0.022,0.006-0.031c0.204-0.852,0.833-1.571,1.69-1.802c0.898-0.232,1.729,0.233,2.264,0.775        c1.117,1.127,1.406,2.913,0.725,4.286c-0.035,0.07-0.121,0.099-0.191,0.064C195.789,129.434,195.761,129.352,195.79,129.283z"/>
					</g>
					<g>
						<path style="fill:#02020C;" d="M190.418,135.77c1.168,0.5,1.842,1.755,1.945,2.985c0.095,1.259-0.34,2.48-0.913,3.555        c-0.579,1.084-1.307,2.056-1.9,3.073c-0.304,0.506-0.537,1.028-0.815,1.586c-0.278,0.547-0.626,1.132-1.19,1.56        c-0.178,0.137-0.433,0.105-0.57-0.073c-0.137-0.178-0.105-0.433,0.073-0.57c0.006-0.004,0.015-0.011,0.021-0.015        c0.848-0.574,1.23-1.808,1.925-2.829c0.666-1.03,1.427-1.958,2.027-2.972c0.596-1.006,1.047-2.131,1.011-3.294        c-0.044-1.137-0.617-2.337-1.684-2.849c-0.043-0.02-0.061-0.071-0.041-0.114C190.327,135.771,190.376,135.753,190.418,135.77z        "/>
					</g>
				</g>
				<g>
					<path style="fill:#02020C;" d="M145.884,160.181c-0.015,0-0.03,0-0.044,0c-2.111-0.014-4.162-1.009-5.353-2.598       c-0.154-0.205-0.113-0.495,0.093-0.649c0.205-0.155,0.495-0.112,0.649,0.093c1.021,1.361,2.79,2.214,4.617,2.227       c1.69,0.017,3.512-0.704,4.894-1.96c0.189-0.172,0.483-0.159,0.656,0.031c0.173,0.19,0.159,0.483-0.031,0.656       C149.824,159.38,147.829,160.181,145.884,160.181z"/>
				</g>
				<g>
					<path style="fill:#02020C;" d="M139.637,153.691c-0.303,0.673-0.664,1.341-0.916,2.011c-0.117,0.333-0.165,0.662-0.077,0.959       c0.083,0.303,0.282,0.596,0.501,0.854c0.904,1.039,2.412,1.401,3.754,1.252l0.006,0l-0.428,0.486l-0.009-0.186       c-0.013-0.256,0.184-0.474,0.44-0.487c0.256-0.013,0.474,0.184,0.487,0.44l0.009,0.186l0.001,0.027       c0.012,0.241-0.173,0.446-0.415,0.458l-0.015,0.001h-0.007c-0.808,0.029-1.613-0.099-2.361-0.39       c-0.746-0.288-1.439-0.766-1.923-1.42c-0.235-0.327-0.445-0.679-0.532-1.107c-0.091-0.435,0.021-0.872,0.178-1.225       c0.328-0.702,0.729-1.32,1.089-1.981c0.033-0.06,0.109-0.083,0.169-0.05c0.057,0.031,0.081,0.101,0.054,0.16L139.637,153.691z"/>
				</g>
				<g>
					<path style="fill:#02020C;" d="M140.473,119.552c0.453,1.473,0.851,2.959,1.24,4.446c0.395,1.486,0.75,2.982,1.105,4.477       c0.005,0.023,0.008,0.048,0.009,0.071c0.038,1.886,0.037,3.764,0.011,5.647c-0.033,1.881-0.073,3.763-0.197,5.642       c-0.117,1.879-0.27,3.758-0.518,5.63c-0.273,1.865-0.587,3.74-1.258,5.533c-0.035,0.094-0.14,0.142-0.235,0.107       c-0.092-0.035-0.14-0.135-0.109-0.228l0.002-0.006c0.585-1.754,0.83-3.622,1.031-5.475c0.208-1.857,0.332-3.725,0.414-5.596       c0.165-3.74,0.228-7.494,0.153-11.236l0.009,0.071c-0.337-1.5-0.674-2.999-0.971-4.508c-0.303-1.507-0.597-3.017-0.836-4.539       c-0.007-0.042,0.022-0.082,0.064-0.088C140.425,119.493,140.462,119.516,140.473,119.552z"/>
				</g>
				<g>
					<path style="fill:#02020C;" d="M153.261,153.57c0.36,0.661,0.761,1.279,1.089,1.981c0.157,0.353,0.269,0.79,0.178,1.225       c-0.086,0.428-0.297,0.78-0.532,1.107c-0.483,0.654-1.177,1.132-1.923,1.42c-0.748,0.291-1.553,0.42-2.361,0.39h-0.007       c-0.241-0.004-0.434-0.202-0.43-0.444l0-0.013l0.001-0.029l0.009-0.186c0.013-0.256,0.231-0.453,0.487-0.44       c0.256,0.013,0.453,0.231,0.44,0.487l-0.009,0.186l-0.428-0.486l0.006,0c1.342,0.15,2.85-0.213,3.754-1.252       c0.219-0.258,0.419-0.55,0.501-0.854c0.088-0.297,0.04-0.625-0.077-0.959c-0.253-0.67-0.613-1.339-0.916-2.011l-0.005-0.011       c-0.028-0.063,0-0.137,0.062-0.165C153.16,153.489,153.23,153.513,153.261,153.57z"/>
				</g>
				<g>
					<path style="fill:#02020C;" d="M135.636,192.277c0.907,5.719,2.796,11.285,5.563,16.379c0.056,0.104,0.018,0.234-0.086,0.29       c-0.103,0.056-0.233,0.018-0.289-0.085c-2.824-5.119-4.769-10.724-5.723-16.498c-0.024-0.148,0.076-0.287,0.223-0.312       c0.148-0.024,0.287,0.076,0.312,0.223L135.636,192.277z"/>
				</g>
				<g>
					<g>
						<path style="fill:#02020C;" d="M168.635,179.336l-0.433,28.979c-0.004,0.289-0.242,0.52-0.531,0.515        c-0.283-0.004-0.511-0.234-0.515-0.515l-0.433-28.979c-0.008-0.528,0.414-0.963,0.942-0.971        c0.528-0.008,0.963,0.414,0.971,0.942C168.635,179.315,168.635,179.328,168.635,179.336z"/>
					</g>
					<g>
						<path style="fill:#02020C;" d="M179.78,210.513c-4.423-2.77-8.678-5.852-12.442-9.493c-0.163-0.158-0.167-0.417-0.01-0.58        c0.154-0.16,0.409-0.165,0.572-0.017c3.82,3.454,8.118,6.353,12.572,8.937c0.322,0.185,0.433,0.596,0.247,0.919        c-0.185,0.322-0.596,0.433-0.919,0.247C179.796,210.523,179.786,210.517,179.78,210.513z"/>
					</g>
				</g>
				<g>
					<g>
						<path style="fill:#02020C;" d="M126.146,179.336l-0.433,28.979c-0.004,0.289-0.242,0.52-0.531,0.515        c-0.284-0.004-0.511-0.234-0.516-0.515l-0.433-28.979c-0.008-0.528,0.414-0.963,0.942-0.971        c0.528-0.008,0.963,0.414,0.971,0.942C126.146,179.315,126.146,179.328,126.146,179.336z"/>
					</g>
					<g>
						<path style="fill:#02020C;" d="M110.871,209.526c2.45-1.416,4.909-2.775,7.302-4.239c2.384-1.467,4.733-3.01,6.794-4.865        l0.004-0.004c0.169-0.152,0.428-0.138,0.58,0.031c0.149,0.165,0.138,0.418-0.021,0.571c-2.075,1.986-4.413,3.623-6.777,5.182        c-2.37,1.553-4.802,2.997-7.189,4.477c-0.315,0.197-0.73,0.1-0.927-0.215c-0.197-0.315-0.1-0.73,0.215-0.927        C110.856,209.535,110.865,209.529,110.871,209.526z"/>
					</g>
				</g>
				<g>
					<path style="fill:#02020C;" d="M157.821,192.364c-0.954,5.774-2.9,11.379-5.723,16.498c-0.057,0.103-0.187,0.141-0.29,0.084       c-0.103-0.057-0.14-0.186-0.085-0.289c2.767-5.094,4.656-10.66,5.563-16.379c0.023-0.148,0.162-0.249,0.31-0.225       c0.148,0.023,0.249,0.162,0.225,0.31L157.821,192.364z"/>
				</g>
				<g>
					<path style="fill:#02020C;" d="M176.661,117.774c-1.329,0.459-2.662,0.733-3.996,0.943c-0.667,0.122-1.335,0.177-2.002,0.265       c-0.668,0.073-1.336,0.12-2.004,0.161l0.146-0.01c-1.443,0.208-2.887,0.407-4.338,0.546c-1.449,0.156-2.907,0.239-4.365,0.317       l-4.377,0.217c-1.459,0.073-2.923,0.102-4.428-0.212c-0.165-0.034-0.271-0.196-0.237-0.361c0.02-0.097,0.085-0.174,0.168-0.214       c1.389-0.658,2.819-0.974,4.255-1.245l4.306-0.816c1.436-0.266,2.872-0.527,4.318-0.716c1.443-0.206,2.893-0.351,4.345-0.488       l0.084-0.008l0.063-0.002c0.669,0.014,1.339,0.034,2.009,0.08c0.67,0.061,1.34,0.088,2.011,0.184       c1.341,0.156,2.684,0.376,4.031,0.781c0.161,0.048,0.252,0.218,0.204,0.379C176.824,117.671,176.749,117.743,176.661,117.774z"/>
				</g>
				<g>
					<path style="fill:#02020C;" d="M114.952,117.196c1.347-0.404,2.689-0.625,4.031-0.781c0.671-0.096,1.341-0.123,2.011-0.184       c0.67-0.046,1.34-0.066,2.009-0.08l0.063,0.002l0.084,0.008c1.451,0.137,2.902,0.282,4.345,0.488       c1.445,0.189,2.882,0.45,4.317,0.716l4.306,0.816c1.435,0.271,2.865,0.588,4.255,1.245c0.152,0.072,0.217,0.254,0.145,0.407       c-0.042,0.089-0.124,0.149-0.214,0.168c-1.505,0.313-2.969,0.285-4.428,0.212l-4.377-0.217       c-1.458-0.078-2.916-0.162-4.365-0.317c-1.451-0.139-2.895-0.338-4.338-0.546l0.146,0.01c-0.668-0.041-1.337-0.088-2.004-0.161       c-0.667-0.088-1.336-0.142-2.002-0.265c-1.334-0.21-2.667-0.484-3.996-0.943c-0.159-0.055-0.243-0.228-0.188-0.386       C114.785,117.293,114.862,117.224,114.952,117.196z"/>
				</g>
				<g>
					<path style="fill:#02020C;" d="M51.129,248.563l7.313-14.767c2.14-3.059,5.067-5.708,8.253-7.773       c1.614-1.025,3.327-1.897,5.089-2.623l1.33-0.508c0.45-0.162,0.93-0.29,1.393-0.437l2.804-0.855l22.428-6.84       c0.032-0.01,0.066-0.024,0.097-0.041l0.013-0.007l5-2.736l2.5-1.368l1.25-0.684l0.625-0.342l0.199-0.109       c0.073,0.062,0.149,0.128,0.211,0.183l0.519,0.47l1.055,0.977c0.77,0.642,1.502,1.217,2.275,1.801       c1.534,1.155,3.119,2.241,4.75,3.254c3.26,2.028,6.714,3.766,10.339,5.079c3.624,1.285,7.423,2.241,11.304,2.355       c0.962,0.025,1.947,0.157,2.891,0.093l2.853-0.087c0.932-0.047,1.82,0.045,2.807,0.09c0.992,0.039,1.946,0.013,2.918-0.043       c3.871-0.231,7.675-1.114,11.295-2.428c3.623-1.318,7.074-3.059,10.334-5.088c3.115-1.957,6.064-4.128,8.802-6.635l9.534,5.217       l0.016,0.009c0.03,0.016,0.061,0.029,0.095,0.039l22.429,6.84l2.803,0.855c0.464,0.147,0.943,0.275,1.393,0.437l1.33,0.508       c1.762,0.727,3.475,1.598,5.089,2.623c1.606,1.038,3.124,2.216,4.523,3.519c0.695,0.656,1.37,1.335,1.998,2.053       c0.62,0.693,1.261,1.502,1.725,2.188l7.319,14.781h1.501l-7.647-15.44c-0.623-0.937-1.214-1.651-1.889-2.419       c-0.659-0.753-1.363-1.461-2.088-2.145c-1.46-1.359-3.041-2.586-4.716-3.669c-1.685-1.071-3.466-1.978-5.315-2.739       l-1.408-0.536c-0.469-0.168-0.935-0.292-1.402-0.44l-2.802-0.855l-22.368-6.821l-9.887-5.41       c-0.247-0.135-0.564-0.104-0.782,0.099l-0.011,0.011c-2.714,2.535-5.776,4.798-8.953,6.79       c-3.19,1.986-6.561,3.686-10.082,4.966c-3.518,1.277-7.195,2.127-10.916,2.349c-0.924,0.054-1.873,0.078-2.779,0.042       c-0.91-0.04-1.918-0.14-2.887-0.091l-2.844,0.087c-0.477,0.028-0.945,0.018-1.408-0.018l-1.395-0.073       c-3.727-0.105-7.402-1.028-10.923-2.277c-3.522-1.276-6.895-2.971-10.086-4.956c-1.597-0.992-3.15-2.056-4.651-3.186       c-0.743-0.56-1.505-1.161-2.194-1.735l-1.035-0.96l-0.538-0.486c-0.207-0.174-0.314-0.296-0.657-0.529       c-0.027-0.015,0.009,0.001-0.071-0.039c-0.104-0.049-0.25-0.081-0.388-0.066c-0.357,0.078-0.248,0.087-0.283,0.087       l-0.078,0.043l-0.156,0.086l-0.313,0.171l-0.625,0.342l-1.25,0.684l-2.5,1.368l-4.94,2.703l-22.368,6.821l-2.802,0.855       c-0.467,0.148-0.933,0.272-1.402,0.44l-1.408,0.536c-1.849,0.761-3.629,1.669-5.314,2.739       c-3.347,2.186-6.337,4.855-8.676,8.202l-0.025,0.043l-0.009,0.019l-7.631,15.409H51.129z M109.763,209.287l0.01-0.005       C109.767,209.273,109.808,209.268,109.763,209.287z"/>
				</g>
				<g>
					<path style="fill:#02020C;" d="M146.146,232.344c-7.253,0-13.744-1.188-19.203-2.79c-16.878-4.952-27.763-14.838-27.87-14.938       c-0.274-0.251-0.291-0.677-0.04-0.95c0.25-0.275,0.677-0.292,0.95-0.041c0.106,0.097,10.798,9.798,27.392,14.653       c15.278,4.473,38.85,5.628,64.393-14.25c0.293-0.227,0.716-0.175,0.943,0.118c0.228,0.293,0.175,0.715-0.118,0.944       C175.687,228.246,159.609,232.344,146.146,232.344z"/>
				</g>
				<g>
					<path style="fill:#02020C;" d="M220.251,248.563c-1.368-5.801-1.108-12.015-0.557-17.976c0.251-2.726,0.589-5.351,1.934-7.51       c0.079-0.127,0.04-0.295-0.087-0.374c-0.128-0.08-0.294-0.039-0.373,0.086c-1.408,2.261-1.756,4.955-2.014,7.747       c-0.551,5.967-0.811,12.189,0.541,18.026H220.251z"/>
				</g>
				<g>
					<path style="fill:#02020C;" d="M72.908,230.587c0.551,5.962,0.811,12.176-0.557,17.976h0.556       c1.352-5.836,1.092-12.058,0.541-18.026c-0.257-2.792-0.605-5.487-2.014-7.747c-0.079-0.125-0.246-0.166-0.374-0.086       c-0.127,0.079-0.166,0.247-0.087,0.374C72.32,225.236,72.657,227.861,72.908,230.587z"/>
				</g>
				<g>
					<g>
						<g>
							<path style="fill:#02020C;" d="M103.188,217.301c-0.09,0-0.179-0.045-0.23-0.127c-0.08-0.126-0.041-0.294,0.085-0.374         l8.821-5.537c0.127-0.08,0.294-0.042,0.374,0.086c0.08,0.126,0.041,0.294-0.085,0.374l-8.821,5.537         C103.287,217.288,103.237,217.301,103.188,217.301z"/>
						</g>
						<g>
							<path style="fill:#02020C;" d="M109.381,221.336c-0.083,0-0.165-0.038-0.218-0.109c-0.089-0.121-0.063-0.29,0.057-0.379         l7.977-5.913c0.121-0.09,0.29-0.064,0.379,0.057c0.089,0.121,0.064,0.29-0.057,0.38l-7.977,5.912         C109.494,221.32,109.437,221.336,109.381,221.336z"/>
						</g>
						<g>
							<path style="fill:#02020C;" d="M116.794,225.184c-0.071,0-0.142-0.027-0.194-0.082c-0.104-0.108-0.102-0.279,0.006-0.384         l6.663-6.475c0.106-0.104,0.279-0.102,0.383,0.006s0.102,0.279-0.006,0.384l-6.663,6.475         C116.931,225.159,116.863,225.184,116.794,225.184z"/>
						</g>
						<g>
							<path style="fill:#02020C;" d="M125.803,228.656c-0.053,0-0.108-0.016-0.155-0.048c-0.122-0.086-0.153-0.255-0.067-0.378         l4.786-6.85c0.086-0.123,0.254-0.152,0.378-0.068c0.123,0.086,0.153,0.255,0.067,0.378l-4.786,6.85         C125.972,228.616,125.888,228.656,125.803,228.656z"/>
						</g>
						<g>
							<path style="fill:#02020C;" d="M135.563,230.908c-0.038,0-0.077-0.007-0.114-0.025c-0.136-0.062-0.195-0.224-0.133-0.359         l3.378-7.319c0.063-0.136,0.225-0.197,0.36-0.133c0.136,0.062,0.195,0.224,0.133,0.359l-3.378,7.319         C135.763,230.849,135.665,230.908,135.563,230.908z"/>
						</g>
					</g>
					<g>
						<g>
							<path style="fill:#02020C;" d="M187.644,217.301c-0.049,0-0.099-0.013-0.144-0.041l-8.821-5.537         c-0.127-0.08-0.165-0.248-0.085-0.374c0.08-0.127,0.246-0.164,0.374-0.086l8.821,5.537c0.127,0.08,0.165,0.248,0.085,0.374         C187.823,217.256,187.734,217.301,187.644,217.301z"/>
						</g>
						<g>
							<path style="fill:#02020C;" d="M181.451,221.336c-0.056,0-0.113-0.017-0.162-0.053l-7.977-5.912         c-0.12-0.089-0.146-0.259-0.057-0.38c0.089-0.121,0.259-0.147,0.379-0.057l7.977,5.913c0.12,0.089,0.146,0.259,0.057,0.379         C181.616,221.298,181.533,221.336,181.451,221.336z"/>
						</g>
						<g>
							<path style="fill:#02020C;" d="M174.037,225.184c-0.068,0-0.136-0.025-0.189-0.076l-6.663-6.475         c-0.108-0.105-0.11-0.276-0.006-0.384c0.103-0.108,0.276-0.109,0.383-0.006l6.663,6.475c0.108,0.105,0.11,0.276,0.006,0.384         C174.179,225.157,174.108,225.184,174.037,225.184z"/>
						</g>
						<g>
							<path style="fill:#02020C;" d="M165.029,228.656c-0.086,0-0.17-0.04-0.223-0.116l-4.786-6.85         c-0.086-0.122-0.056-0.291,0.067-0.378c0.123-0.085,0.292-0.056,0.378,0.068l4.786,6.85c0.086,0.122,0.056,0.291-0.067,0.378         C165.137,228.64,165.082,228.656,165.029,228.656z"/>
						</g>
						<g>
							<path style="fill:#02020C;" d="M155.269,230.908c-0.102,0-0.2-0.058-0.246-0.158l-3.378-7.319         c-0.063-0.135-0.003-0.297,0.133-0.359c0.136-0.063,0.297-0.004,0.36,0.133l3.378,7.319c0.063,0.135,0.003,0.297-0.133,0.359         C155.346,230.9,155.307,230.908,155.269,230.908z"/>
						</g>
					</g>
					<g>
						<path style="fill:#02020C;" d="M146.073,232.221c-0.15,0-0.271-0.121-0.271-0.271v-9.036c0-0.149,0.121-0.271,0.271-0.271        c0.15,0,0.271,0.122,0.271,0.271v9.036C146.344,232.1,146.223,232.221,146.073,232.221z"/>
					</g>
				</g>
				<g>
					<polygon style="fill:#02020C;" points="178.533,208.53 181.605,207.974 180.2,209.543      "/>
				</g>
				<g>
					<polygon style="fill:#02020C;" points="112.681,208.53 109.609,207.974 111.014,209.543      "/>
				</g>
				<g>
					<g>
						<path style="fill:#02020C;" d="M162.369,128.258c1.218-0.419,2.723-1.075,4.029-1.21c1.824,1.255,3.067,3.735,3.067,6.594        c0,4.124-2.584,7.466-5.772,7.466c-3.188,0-5.772-3.343-5.772-7.466c0-1.508,0.386-3.016,0.981-4.19        C160.068,129.016,161.189,128.663,162.369,128.258z"/>
					</g>
					<g>
						<path style="fill:#02020C;" d="M173.966,127.027l-0.66-0.086l-0.607-0.052c-0.408-0.02-0.818-0.032-1.229-0.024        c-0.823,0.005-1.648,0.069-2.472,0.157c-1.648,0.18-3.283,0.507-4.898,0.912c-1.621,0.39-3.209,0.908-4.791,1.446        l-2.348,0.878l-2.317,0.964c-0.03,0.013-0.065,0-0.078-0.029c-0.013-0.029,0.001-0.064,0.029-0.078l2.287-1.046l2.325-0.962        c1.569-0.594,3.15-1.171,4.772-1.622c1.617-0.466,3.262-0.854,4.937-1.096c0.838-0.118,1.681-0.213,2.533-0.248        c0.425-0.022,0.853-0.025,1.282-0.019l0.646,0.032l0.325,0.028c0.098,0.013,0.252,0.026,0.262,0.034l0.251,0.183        c0.156,0.114,0.191,0.332,0.077,0.488C174.216,126.993,174.089,127.043,173.966,127.027z"/>
					</g>
					<g>
						<path style="fill:#02020C;" d="M171.682,139.783c-1.122,0.523-2.241,0.822-3.396,1.064c-1.15,0.233-2.314,0.362-3.479,0.423        c-1.165,0.038-2.33,0.025-3.487-0.087c-1.158-0.095-2.302-0.286-3.438-0.506c-0.037-0.007-0.061-0.043-0.054-0.08        c0.007-0.036,0.043-0.059,0.079-0.054c1.141,0.163,2.284,0.297,3.433,0.335c1.147,0.054,2.295,0.011,3.434-0.082        c1.138-0.115,2.266-0.297,3.368-0.576c1.09-0.28,2.2-0.648,3.15-1.149l0.028-0.015c0.198-0.105,0.444-0.029,0.549,0.17        c0.105,0.198,0.029,0.444-0.17,0.549C171.694,139.777,171.687,139.781,171.682,139.783z"/>
					</g>
					<g>
						<path style="fill:#02020C;" d="M169.629,123.123c-2.208-0.185-4.442,0.104-6.579,0.699c-2.142,0.596-4.192,1.496-6.162,2.539        c-0.112,0.059-0.25,0.016-0.309-0.095c-0.059-0.112-0.016-0.25,0.095-0.309l0.001,0c1.994-1.046,4.076-1.952,6.26-2.551        c2.179-0.598,4.463-0.885,6.729-0.687c0.112,0.01,0.194,0.108,0.185,0.22C169.838,123.05,169.74,123.133,169.629,123.123z"/>
					</g>
					<g>
						<path style="fill:#02020C;" d="M128.818,128.258c-1.218-0.419-2.723-1.075-4.028-1.21c-1.824,1.255-3.067,3.735-3.067,6.594        c0,4.124,2.584,7.466,5.772,7.466c3.188,0,5.772-3.343,5.772-7.466c0-1.508-0.386-3.016-0.981-4.19        C131.119,129.016,129.997,128.663,128.818,128.258z"/>
					</g>
					<g>
						<path style="fill:#02020C;" d="M117.22,126.215c0.01-0.007,0.165-0.021,0.263-0.034l0.325-0.028l0.646-0.032        c0.429-0.006,0.856-0.004,1.282,0.019c0.852,0.035,1.695,0.13,2.533,0.248c1.676,0.242,3.32,0.631,4.937,1.096        c1.622,0.451,3.203,1.027,4.772,1.622l2.325,0.962l2.287,1.046c0.03,0.014,0.043,0.049,0.029,0.078        c-0.013,0.029-0.049,0.041-0.078,0.029l-2.317-0.964l-2.348-0.878c-1.582-0.537-3.17-1.056-4.791-1.446        c-1.615-0.406-3.251-0.732-4.898-0.912c-0.823-0.088-1.649-0.151-2.471-0.157c-0.412-0.008-0.821,0.005-1.229,0.024        l-0.607,0.052l-0.66,0.086c-0.191,0.025-0.367-0.11-0.392-0.301c-0.017-0.131,0.041-0.255,0.14-0.328L117.22,126.215z"/>
					</g>
					<g>
						<path style="fill:#02020C;" d="M119.895,139.07c0.95,0.501,2.059,0.869,3.15,1.149c1.102,0.279,2.23,0.461,3.368,0.576        c1.139,0.093,2.287,0.136,3.434,0.082c1.148-0.038,2.292-0.172,3.433-0.335c0.037-0.006,0.072,0.019,0.079,0.056        c0.006,0.036-0.019,0.071-0.054,0.079c-1.136,0.22-2.28,0.41-3.438,0.506c-1.156,0.111-2.321,0.125-3.487,0.087        c-1.164-0.061-2.328-0.19-3.478-0.423c-1.155-0.242-2.274-0.54-3.396-1.064c-0.203-0.095-0.291-0.337-0.197-0.54        c0.095-0.203,0.337-0.291,0.54-0.196c0.006,0.002,0.011,0.005,0.017,0.008L119.895,139.07z"/>
					</g>
					<g>
						<path style="fill:#02020C;" d="M121.523,122.719c2.265-0.198,4.55,0.09,6.729,0.687c2.184,0.599,4.266,1.505,6.26,2.551        c0.112,0.059,0.155,0.197,0.096,0.309c-0.059,0.112-0.197,0.155-0.309,0.096l-0.001,0c-1.97-1.043-4.02-1.943-6.162-2.539        c-2.137-0.595-4.371-0.883-6.579-0.699c-0.112,0.009-0.21-0.074-0.219-0.186C121.329,122.826,121.412,122.728,121.523,122.719        z"/>
					</g>
					<g>
						<path style="fill:#F4EFE9;" d="M170.628,132.981c0,1.036-0.689,1.877-1.539,1.877c-0.85,0-1.539-0.84-1.539-1.877        c0-1.037,0.689-1.877,1.539-1.877C169.939,131.104,170.628,131.944,170.628,132.981z"/>
					</g>
					<g>
						<path style="fill:#F4EFE9;" d="M134.384,132.981c0,1.036-0.689,1.877-1.539,1.877c-0.85,0-1.539-0.84-1.539-1.877        c0-1.037,0.689-1.877,1.539-1.877C133.695,131.104,134.384,131.944,134.384,132.981z"/>
					</g>
					<g>
						<g>
							<g>
								<path style="fill:#02020C;" d="M125.924,151.024c-9.455,0-17.148-7.693-17.148-17.148s7.693-17.148,17.148-17.148          c9.455,0,17.148,7.693,17.148,17.148S135.379,151.024,125.924,151.024z M125.924,117.947c-8.784,0-15.93,7.145-15.93,15.929          s7.146,15.929,15.93,15.929c8.784,0,15.93-7.145,15.93-15.929S134.707,117.947,125.924,117.947z"/>
							</g>
							<g>
								<polygon style="fill:#02020C;" points="109.749,130.766 107.58,130.736 107.58,127.081 110.552,127.111         "/>
							</g>
							<g>
								<path style="fill:#02020C;" d="M108.969,128.937c-1.391-0.366-2.674-0.959-3.926-1.618          c-1.245-0.674-2.464-1.401-3.585-2.335l0.095-0.199c1.431,0.282,2.765,0.769,4.072,1.311          c1.301,0.556,2.57,1.178,3.731,2.028L108.969,128.937z"/>
							</g>
						</g>
						<g>
							<g>
								<path style="fill:#02020C;" d="M166.952,151.024c-9.455,0-17.148-7.693-17.148-17.148s7.692-17.148,17.148-17.148          c9.455,0,17.148,7.693,17.148,17.148S176.408,151.024,166.952,151.024z M166.952,117.947c-8.784,0-15.93,7.145-15.93,15.929          s7.146,15.929,15.93,15.929c8.784,0,15.93-7.145,15.93-15.929S175.736,117.947,166.952,117.947z"/>
							</g>
							<g>
								<polygon style="fill:#02020C;" points="183.127,130.766 185.296,130.736 185.296,127.081 182.324,127.111         "/>
							</g>
							<g>
								<path style="fill:#02020C;" d="M183.52,128.123c1.161-0.849,2.43-1.471,3.731-2.028c1.307-0.542,2.641-1.029,4.072-1.311          l0.095,0.199c-1.121,0.934-2.34,1.661-3.585,2.335c-1.252,0.659-2.535,1.252-3.926,1.618L183.52,128.123z"/>
							</g>
						</g>
						<g>
							<path style="fill:#02020C;" d="M150.503,131.536c-0.069,0-0.139-0.012-0.207-0.037c-4.46-1.615-7.59-0.048-7.621-0.032         c-0.3,0.152-0.665,0.037-0.821-0.261c-0.155-0.298-0.041-0.664,0.257-0.82c0.146-0.075,3.611-1.842,8.6-0.033         c0.316,0.114,0.48,0.464,0.366,0.78C150.986,131.382,150.752,131.536,150.503,131.536z"/>
						</g>
					</g>
				</g>
				<g>
					<path style="fill:#02020C;" d="M140.882,165.713c2.623,1.408,5.812,1.838,8.785,1.134c0.07-0.017,0.141,0.027,0.158,0.097       c0.016,0.067-0.024,0.135-0.089,0.156c-2.982,0.922-6.33,0.727-9.246-0.59c-0.224-0.1-0.323-0.363-0.223-0.587       c0.1-0.224,0.363-0.323,0.587-0.223C140.863,165.703,140.873,165.709,140.882,165.713z"/>
				</g>
				<g>
					<path style="fill:#02020C;" d="M104.728,144.215c-0.03-0.013-0.057-0.045-0.087-0.063       C104.677,144.224,104.708,144.262,104.728,144.215z"/>
					<path style="fill:#02020C;" d="M187.6,144.152c-0.029,0.018-0.057,0.05-0.087,0.063       C187.533,144.262,187.564,144.224,187.6,144.152z"/>
					<path style="fill:#02020C;" d="M196.293,86.397c-0.473-2.188-1.092-4.314-2.166-6.472c-2.094-4.21-4.603-8.247-7.81-11.686       c-6.178-6.625-14.74-10.74-23.618-12.54s-18.083-1.403-27.03,0.016c-5.694,0.903-11.297,2.805-16.591,5.075       c-5.197,2.228-10.069,5.221-14.373,8.891c1.776-0.291,3.551-0.582,5.327-0.873c-0.097,0.099-0.194,0.197-0.29,0.297       c-3.529,1.595-6.627,4.138-8.849,7.31c-2.1,2.998-3.408,6.483-4.359,10.018c-1.574,5.856-2.219,11.962-1.901,18.018       c0.62-1.884,1.667-3.625,3.034-5.062c0.42,11.64,2.406,23.197,4.388,34.691c0.293,1.699,1.039,9.127,2.586,10.072       c-0.362-0.744-1.417-7.158-1.628-6.672c2-7.714,4.491-27.042,5.043-28.732c0.552-1.69,1.767-3.28,3.481-3.753       c-1.425-3.763,0.084-0.022-1.573-3.838c2.021-4.582,3.979-6.833,8.696-8.513c2.414-0.86,4.925-1.357,7.473-1.652       c0.325,0.034,0.65,0.068,0.975,0.103c-6.751,4.781-12.221,11.319-15.854,18.744c-2.012,4.112-3.471,8.499-4.285,13.006       c-0.825,4.569-1.679,9.076-1.675,13.735c0.01,11.425,2.716,22.673,6.163,33.501c2.612,8.205,6.049,16.784,13.131,21.681       c-8.547-15.197-13.548-32.374-14.495-49.784c-0.521-9.581,0.233-19.473,4.286-28.171c3.27-7.017,8.958-13.21,16.202-16.177       c1.603-0.657,3.322-1.175,5.078-1.618c2.586-0.653,5.256-1.143,7.762-1.675c0.952-0.202,1.908-0.385,2.864-0.567       c0.956,0.182,1.912,0.365,2.864,0.567c2.507,0.532,5.176,1.022,7.762,1.675c1.756,0.443,3.475,0.961,5.078,1.618       c7.244,2.967,12.932,9.16,16.202,16.177c4.053,8.698,4.807,18.589,4.286,28.171c-0.947,17.41-5.948,34.587-14.495,49.784       c7.082-4.897,10.519-13.476,13.13-21.681c3.447-10.828,6.154-22.075,6.163-33.501c0.004-4.658-0.85-9.166-1.675-13.735       c-0.813-4.507-2.272-8.893-4.285-13.006c-2.376-4.856-5.546-9.328-9.334-13.188c0.092,0.05,0.181,0.103,0.273,0.152       c2.874,1.554,5.829,2.953,8.837,4.228c0.144,0.327,0.29,0.659,0.442,1.002c-0.683,3.006,0.039,0.118-0.831,2.962       c1.714,0.473,2.929,2.063,3.481,3.753s3.043,21.018,5.043,28.732c-0.211-0.486-1.266,5.928-1.628,6.672       c1.548-0.945,2.294-8.373,2.586-10.072c1.725-10.008,3.451-20.063,4.147-30.179c0.273-1.513,0.486-3.038,0.612-4.571       c1.393,1.448,2.456,3.212,3.085,5.121c0.234-4.468-0.056-8.962-0.855-13.364C196.881,89.472,196.622,87.92,196.293,86.397z        M173.701,92.691c3.276,1.201,4.841,3.12,6.188,5.757C177.681,96.692,175.615,94.764,173.701,92.691z"/>
				</g>
			</g>
		</g>
	</g>
</g>
</svg>